# xmcd
#
# Track frame offsets: 
#        150
#        8402
#        20117
#        28825
#        39814
#        49367
#        62760
#        79025
#        89914
#        97701
#        110716
#        120291
#        128399
#        137166
#        152387
#
# Disc length: 2174 seconds
#
# Revision: 0
# Processed by: cddbd v1.5.2PL0 Copyright (c) Steve Scherf et al.
# Submitted via: ExactAudioCopy v0.99pb5
#
DISCID=b2087c0f
DTITLE=Jacques Brel - Collection Patrimoine
DYEAR=1900
DGENRE=Blues
TTITLE0=Grand Jacques
TTITLE1=Il Pleut
TTITLE2=La Haine
TTITLE3=Le Diable
TTITLE4=S'il Te Faut
TTITLE5=La Bastille
TTITLE6=Sur La Place
TTITLE7=Il Nous Faut Regarder
TTITLE8=Il Peut Pleuvoir
TTITLE9=Les Pieds Dans Le Ruisseau
TTITLE10=C'est Comme Ca
TTITLE11=Qu'Avons-Nous Fait Bonnes Gens?
TTITLE12=Le Fou Du Roi
TTITLE13=La Foire
TTITLE14=Il Y A
EXTD=
EXTT0=
EXTT1=
EXTT2=
EXTT3=
EXTT4=
EXTT5=
EXTT6=
EXTT7=
EXTT8=
EXTT9=
EXTT10=
EXTT11=
EXTT12=
EXTT13=
EXTT14=
PLAYORDER=
